<svg data-v-fde0c5aa="" xmlns="http://www.w3.org/2000/svg" viewBox="0 0 300 300" class="font"><!----><defs data-v-fde0c5aa=""><!----></defs><rect data-v-fde0c5aa="" fill="#351B4E" x="0" y="0" width="300px" height="300px" class="logo-background-square"></rect><defs data-v-fde0c5aa=""><!----></defs><g data-v-fde0c5aa="" id="ee2abb35-2ceb-4a16-b9b6-5304ad747d48" fill="#33D0F4" transform="matrix(2.7237834389345257,0,0,2.7237834389345257,37.71202182037893,126.8342215401496)"><path d="M0.84 12.29L0.84 2.69L4.86 2.69L4.86 2.69Q6.27 2.69 7.04 3.44L7.04 3.44L7.04 3.44Q7.80 4.20 7.80 5.43L7.80 5.43L7.80 5.43Q7.80 6.30 7.37 6.94L7.37 6.94L7.37 6.94Q6.94 7.59 6.19 7.90L6.19 7.90L8.04 12.29L6.09 12.29L4.49 8.29L2.63 8.29L2.63 12.29L0.84 12.29ZM2.63 6.71L4.61 6.71L4.61 6.71Q5.24 6.71 5.55 6.38L5.55 6.38L5.55 6.38Q5.87 6.05 5.87 5.43L5.87 5.43L5.87 5.43Q5.87 4.89 5.57 4.58L5.57 4.58L5.57 4.58Q5.28 4.28 4.68 4.28L4.68 4.28L2.63 4.28L2.63 6.71ZM9.04 3.70L9.04 2.17L10.72 2.17L10.72 3.70L9.04 3.70ZM9.04 12.29L9.04 4.93L10.72 4.93L10.72 12.29L9.04 12.29ZM11.73 12.29L11.73 11.58L14.59 6.34L11.90 6.34L11.90 4.93L16.87 4.93L16.87 5.63L14 10.88L16.97 10.88L16.97 12.29L11.73 12.29ZM19.26 12.46L19.26 12.46Q18.58 12.46 18.00 11.99L18.00 11.99L18.00 11.99Q17.42 11.52 17.42 10.39L17.42 10.39L17.42 10.39Q17.42 8.99 18.37 8.40L18.37 8.40L18.37 8.40Q19.32 7.81 21.07 7.81L21.07 7.81L21.07 7.04L21.07 7.04Q21.07 6.61 20.91 6.37L20.91 6.37L20.91 6.37Q20.75 6.13 20.30 6.13L20.30 6.13L20.30 6.13Q19.84 6.13 19.63 6.36L19.63 6.36L19.63 6.36Q19.42 6.59 19.42 6.90L19.42 6.90L19.42 7.11L17.78 7.11L17.78 7.11Q17.77 7.03 17.77 6.80L17.77 6.80L17.77 6.80Q17.77 5.88 18.45 5.32L18.45 5.32L18.45 5.32Q19.12 4.76 20.26 4.76L20.26 4.76L20.26 4.76Q21.52 4.76 22.14 5.32L22.14 5.32L22.14 5.32Q22.76 5.88 22.76 6.93L22.76 6.93L22.76 10.56L22.76 10.56Q22.76 10.81 22.88 10.93L22.88 10.93L22.88 10.93Q22.99 11.05 23.16 11.05L23.16 11.05L23.49 11.05L23.49 12.24L23.49 12.24Q23.07 12.46 22.50 12.46L22.50 12.46L22.50 12.46Q22.01 12.46 21.66 12.20L21.66 12.20L21.66 12.20Q21.32 11.94 21.20 11.49L21.20 11.49L21.13 11.49L21.13 11.49Q20.78 11.98 20.36 12.22L20.36 12.22L20.36 12.22Q19.95 12.46 19.26 12.46L19.26 12.46ZM19.96 11.06L19.96 11.06Q20.52 11.06 20.80 10.61L20.80 10.61L20.80 10.61Q21.07 10.16 21.07 9.45L21.07 9.45L21.07 9.03L21.07 9.03Q20.22 9.03 19.68 9.30L19.68 9.30L19.68 9.30Q19.14 9.58 19.14 10.23L19.14 10.23L19.14 10.23Q19.14 10.63 19.34 10.84L19.34 10.84L19.34 10.84Q19.54 11.06 19.96 11.06L19.96 11.06ZM24.36 12.29L24.36 2.17L26.04 2.17L26.04 12.29L24.36 12.29ZM34.22 8.61L34.22 7.07L38.21 7.07L38.21 12.29L37.04 12.29L36.74 11.23L36.74 11.23Q36.27 11.83 35.61 12.14L35.61 12.14L35.61 12.14Q34.94 12.46 34.17 12.46L34.17 12.46L34.17 12.46Q32.37 12.46 31.42 11.23L31.42 11.23L31.42 11.23Q30.46 10.01 30.46 7.49L30.46 7.49L30.46 7.49Q30.46 4.98 31.51 3.75L31.51 3.75L31.51 3.75Q32.56 2.52 34.54 2.52L34.54 2.52L34.54 2.52Q35.53 2.52 36.37 2.93L36.37 2.93L36.37 2.93Q37.20 3.35 37.70 4.14L37.70 4.14L37.70 4.14Q38.21 4.94 38.21 6.05L38.21 6.05L36.37 6.05L36.37 6.05Q36.37 5.11 35.83 4.58L35.83 4.58L35.83 4.58Q35.29 4.06 34.48 4.06L34.48 4.06L34.48 4.06Q33.39 4.06 32.85 4.86L32.85 4.86L32.85 4.86Q32.31 5.66 32.31 7.14L32.31 7.14L32.31 7.84L32.31 7.84Q32.31 9.34 32.85 10.13L32.85 10.13L32.85 10.13Q33.39 10.92 34.50 10.92L34.50 10.92L34.50 10.92Q35.32 10.92 35.85 10.28L35.85 10.28L35.85 10.28Q36.37 9.65 36.37 8.61L36.37 8.61L34.22 8.61ZM42.43 12.46L42.43 12.46Q40.95 12.46 40.22 11.52L40.22 11.52L40.22 11.52Q39.49 10.58 39.49 8.61L39.49 8.61L39.49 8.61Q39.49 6.64 40.22 5.70L40.22 5.70L40.22 5.70Q40.95 4.76 42.43 4.76L42.43 4.76L42.43 4.76Q43.92 4.76 44.65 5.70L44.65 5.70L44.65 5.70Q45.37 6.64 45.37 8.61L45.37 8.61L45.37 8.61Q45.37 10.58 44.65 11.52L44.65 11.52L44.65 11.52Q43.92 12.46 42.43 12.46L42.43 12.46ZM42.43 11.05L42.43 11.05Q43.06 11.05 43.34 10.51L43.34 10.51L43.34 10.51Q43.62 9.97 43.62 8.88L43.62 8.88L43.62 8.34L43.62 8.34Q43.62 7.25 43.34 6.71L43.34 6.71L43.34 6.71Q43.06 6.17 42.43 6.17L42.43 6.17L42.43 6.17Q41.80 6.17 41.52 6.71L41.52 6.71L41.52 6.71Q41.24 7.25 41.24 8.34L41.24 8.34L41.24 8.88L41.24 8.88Q41.24 9.97 41.52 10.51L41.52 10.51L41.52 10.51Q41.80 11.05 42.43 11.05L42.43 11.05ZM47.74 12.29L45.95 4.93L47.63 4.93L48.33 7.95L48.33 7.95Q48.47 8.57 48.55 9.34L48.55 9.34L48.55 9.34Q48.62 10.11 48.62 10.26L48.62 10.26L48.68 10.26L48.68 10.26Q48.69 10.05 48.78 9.34L48.78 9.34L48.78 9.34Q48.86 8.62 48.99 7.97L48.99 7.97L49.62 4.93L51.30 4.93L51.93 7.98L51.93 7.98Q52.02 8.43 52.12 9.22L52.12 9.22L52.12 9.22Q52.21 10.01 52.23 10.26L52.23 10.26L52.29 10.26L52.29 10.26Q52.32 10.02 52.44 9.26L52.44 9.26L52.44 9.26Q52.56 8.50 52.65 7.98L52.65 7.98L53.30 4.93L54.85 4.93L53.07 12.29L51.38 12.29L50.65 8.78L50.65 8.78Q50.55 8.32 50.51 7.73L50.51 7.73L50.51 7.73Q50.46 7.14 50.44 6.96L50.44 6.96L50.36 6.96L50.36 6.96Q50.34 7.14 50.30 7.71L50.30 7.71L50.30 7.71Q50.25 8.29 50.15 8.76L50.15 8.76L49.43 12.29L47.74 12.29ZM56.91 12.46L56.91 12.46Q56.22 12.46 55.64 11.99L55.64 11.99L55.64 11.99Q55.06 11.52 55.06 10.39L55.06 10.39L55.06 10.39Q55.06 8.99 56.01 8.40L56.01 8.40L56.01 8.40Q56.97 7.81 58.72 7.81L58.72 7.81L58.72 7.04L58.72 7.04Q58.72 6.61 58.56 6.37L58.56 6.37L58.56 6.37Q58.39 6.13 57.95 6.13L57.95 6.13L57.95 6.13Q57.48 6.13 57.27 6.36L57.27 6.36L57.27 6.36Q57.06 6.59 57.06 6.90L57.06 6.90L57.06 7.11L55.43 7.11L55.43 7.11Q55.41 7.03 55.41 6.80L55.41 6.80L55.41 6.80Q55.41 5.88 56.09 5.32L56.09 5.32L56.09 5.32Q56.77 4.76 57.90 4.76L57.90 4.76L57.90 4.76Q59.16 4.76 59.79 5.32L59.79 5.32L59.79 5.32Q60.41 5.88 60.41 6.93L60.41 6.93L60.41 10.56L60.41 10.56Q60.41 10.81 60.52 10.93L60.52 10.93L60.52 10.93Q60.63 11.05 60.80 11.05L60.80 11.05L61.14 11.05L61.14 12.24L61.14 12.24Q60.72 12.46 60.14 12.46L60.14 12.46L60.14 12.46Q59.65 12.46 59.31 12.20L59.31 12.20L59.31 12.20Q58.97 11.94 58.84 11.49L58.84 11.49L58.77 11.49L58.77 11.49Q58.42 11.98 58.01 12.22L58.01 12.22L58.01 12.22Q57.60 12.46 56.91 12.46L56.91 12.46ZM57.61 11.06L57.61 11.06Q58.17 11.06 58.44 10.61L58.44 10.61L58.44 10.61Q58.72 10.16 58.72 9.45L58.72 9.45L58.72 9.03L58.72 9.03Q57.86 9.03 57.32 9.30L57.32 9.30L57.32 9.30Q56.78 9.58 56.78 10.23L56.78 10.23L56.78 10.23Q56.78 10.63 56.99 10.84L56.99 10.84L56.99 10.84Q57.19 11.06 57.61 11.06L57.61 11.06ZM62.02 12.29L62.02 4.93L63.42 4.93L63.59 5.84L63.67 5.84L63.67 5.84Q63.99 5.36 64.46 5.06L64.46 5.06L64.46 5.06Q64.92 4.76 65.53 4.76L65.53 4.76L65.53 4.76Q66.44 4.76 66.97 5.33L66.97 5.33L66.97 5.33Q67.49 5.89 67.49 7.13L67.49 7.13L67.49 12.29L65.81 12.29L65.81 7.59L65.81 7.59Q65.81 6.90 65.57 6.59L65.57 6.59L65.57 6.59Q65.32 6.29 64.85 6.29L64.85 6.29L64.85 6.29Q64.36 6.29 64.03 6.71L64.03 6.71L64.03 6.71Q63.70 7.14 63.70 7.76L63.70 7.76L63.70 12.29L62.02 12.29ZM71.20 12.46L71.20 12.46Q70.08 12.46 69.46 11.50L69.46 11.50L69.46 11.50Q68.84 10.54 68.84 8.60L68.84 8.60L68.84 8.60Q68.84 6.68 69.46 5.72L69.46 5.72L69.46 5.72Q70.08 4.76 71.12 4.76L71.12 4.76L71.12 4.76Q71.68 4.76 72.12 5.00L72.12 5.00L72.12 5.00Q72.56 5.25 72.76 5.68L72.76 5.68L72.83 5.68L72.83 2.17L74.51 2.17L74.51 12.29L73.11 12.29L72.94 11.38L72.87 11.38L72.87 11.38Q72.60 11.91 72.17 12.19L72.17 12.19L72.17 12.19Q71.74 12.46 71.20 12.46L71.20 12.46ZM71.71 10.93L71.71 10.93Q72.30 10.93 72.56 10.42L72.56 10.42L72.56 10.42Q72.83 9.91 72.83 8.88L72.83 8.88L72.83 8.37L72.83 8.37Q72.83 7.34 72.56 6.81L72.56 6.81L72.56 6.81Q72.30 6.29 71.71 6.29L71.71 6.29L71.71 6.29Q71.12 6.29 70.85 6.80L70.85 6.80L70.85 6.80Q70.59 7.31 70.59 8.34L70.59 8.34L70.59 8.88L70.59 8.88Q70.59 9.91 70.85 10.42L70.85 10.42L70.85 10.42Q71.12 10.93 71.71 10.93L71.71 10.93ZM76.99 14.84L76.99 14.84Q76.55 14.84 76.22 14.79L76.22 14.79L76.22 14.79Q75.89 14.74 75.89 14.71L75.89 14.71L75.89 13.43L76.65 13.43L76.65 13.43Q77.03 13.43 77.34 13.15L77.34 13.15L77.34 13.15Q77.64 12.87 77.78 12.29L77.78 12.29L75.33 4.93L77.11 4.93L78.22 8.39L78.22 8.39Q78.33 8.74 78.46 9.41L78.46 9.41L78.46 9.41Q78.58 10.08 78.61 10.30L78.61 10.30L78.67 10.30L78.67 10.30Q78.69 10.09 78.81 9.44L78.81 9.44L78.81 9.44Q78.92 8.79 79.02 8.40L79.02 8.40L79.93 4.93L81.61 4.93L79.59 11.91L79.59 11.91Q79.20 13.27 78.58 14.06L78.58 14.06L78.58 14.06Q77.97 14.84 76.99 14.84L76.99 14.84Z"></path></g><!----><!----></svg>